<?xml version="1.0" encoding="UTF-8"?>
<!DOCTYPE svg PUBLIC "-//W3C//DTD SVG 1.1//EN" "http://www.w3.org/Graphics/SVG/1.1/DTD/svg11.dtd">
<svg width="210mm" height="98mm" viewBox="0 0 21000 9800" version="1.1" xmlns="http://www.w3.org/2000/svg" xmlns:xlink="http://www.w3.org/1999/xlink" stroke-width="28.222" stroke-linejoin="round" xml:space="preserve">
 <path fill="rgb(255,255,255)" stroke="none" d="M 10503,9826 L -1,9826 -1,1 21007,1 21007,9826 10503,9826 Z"/>
 <path fill="none" stroke="rgb(179,179,179)" stroke-linejoin="round" d="M 7556,8983 L 869,8983 869,396 14242,396 14242,8983 7556,8983 Z"/>
 <path fill="none" stroke="rgb(179,179,179)" stroke-linejoin="round" d="M 14241,8982 L 869,8982"/>
 <path fill="none" stroke="rgb(179,179,179)" stroke-linejoin="round" d="M 14241,7550 L 869,7550"/>
 <path fill="none" stroke="rgb(179,179,179)" stroke-linejoin="round" d="M 14241,6119 L 869,6119"/>
 <path fill="none" stroke="rgb(179,179,179)" stroke-linejoin="round" d="M 14241,4689 L 869,4689"/>
 <path fill="none" stroke="rgb(179,179,179)" stroke-linejoin="round" d="M 14241,3257 L 869,3257"/>
 <path fill="none" stroke="rgb(179,179,179)" stroke-linejoin="round" d="M 14241,1826 L 869,1826"/>
 <path fill="none" stroke="rgb(179,179,179)" stroke-linejoin="round" d="M 14241,395 L 869,395"/>
 <path fill="none" stroke="rgb(179,179,179)" stroke-linejoin="round" d="M 869,9132 L 869,8982"/>
 <path fill="none" stroke="rgb(179,179,179)" stroke-linejoin="round" d="M 869,9132 L 869,8982"/>
 <path fill="none" stroke="rgb(179,179,179)" stroke-linejoin="round" d="M 2206,9132 L 2206,8982"/>
 <path fill="none" stroke="rgb(179,179,179)" stroke-linejoin="round" d="M 2206,9132 L 2206,8982"/>
 <path fill="none" stroke="rgb(179,179,179)" stroke-linejoin="round" d="M 3543,9132 L 3543,8982"/>
 <path fill="none" stroke="rgb(179,179,179)" stroke-linejoin="round" d="M 3543,9132 L 3543,8982"/>
 <path fill="none" stroke="rgb(179,179,179)" stroke-linejoin="round" d="M 4881,9132 L 4881,8982"/>
 <path fill="none" stroke="rgb(179,179,179)" stroke-linejoin="round" d="M 4881,9132 L 4881,8982"/>
 <path fill="none" stroke="rgb(179,179,179)" stroke-linejoin="round" d="M 6218,9132 L 6218,8982"/>
 <path fill="none" stroke="rgb(179,179,179)" stroke-linejoin="round" d="M 6218,9132 L 6218,8982"/>
 <path fill="none" stroke="rgb(179,179,179)" stroke-linejoin="round" d="M 7555,9132 L 7555,8982"/>
 <path fill="none" stroke="rgb(179,179,179)" stroke-linejoin="round" d="M 7555,9132 L 7555,8982"/>
 <path fill="none" stroke="rgb(179,179,179)" stroke-linejoin="round" d="M 8893,9132 L 8893,8982"/>
 <path fill="none" stroke="rgb(179,179,179)" stroke-linejoin="round" d="M 8893,9132 L 8893,8982"/>
 <path fill="none" stroke="rgb(179,179,179)" stroke-linejoin="round" d="M 10230,9132 L 10230,8982"/>
 <path fill="none" stroke="rgb(179,179,179)" stroke-linejoin="round" d="M 10230,9132 L 10230,8982"/>
 <path fill="none" stroke="rgb(179,179,179)" stroke-linejoin="round" d="M 11567,9132 L 11567,8982"/>
 <path fill="none" stroke="rgb(179,179,179)" stroke-linejoin="round" d="M 11567,9132 L 11567,8982"/>
 <path fill="none" stroke="rgb(179,179,179)" stroke-linejoin="round" d="M 12904,9132 L 12904,8982"/>
 <path fill="none" stroke="rgb(179,179,179)" stroke-linejoin="round" d="M 12904,9132 L 12904,8982"/>
 <path fill="none" stroke="rgb(179,179,179)" stroke-linejoin="round" d="M 14241,9132 L 14241,8982"/>
 <path fill="none" stroke="rgb(179,179,179)" stroke-linejoin="round" d="M 14241,9132 L 14241,8982"/>
 <path fill="none" stroke="rgb(179,179,179)" stroke-linejoin="round" d="M 869,8982 L 14241,8982"/>
 <path fill="none" stroke="rgb(179,179,179)" stroke-linejoin="round" d="M 719,8982 L 869,8982"/>
 <path fill="none" stroke="rgb(179,179,179)" stroke-linejoin="round" d="M 719,8982 L 869,8982"/>
 <path fill="none" stroke="rgb(179,179,179)" stroke-linejoin="round" d="M 719,7550 L 869,7550"/>
 <path fill="none" stroke="rgb(179,179,179)" stroke-linejoin="round" d="M 719,7550 L 869,7550"/>
 <path fill="none" stroke="rgb(179,179,179)" stroke-linejoin="round" d="M 719,6119 L 869,6119"/>
 <path fill="none" stroke="rgb(179,179,179)" stroke-linejoin="round" d="M 719,6119 L 869,6119"/>
 <path fill="none" stroke="rgb(179,179,179)" stroke-linejoin="round" d="M 719,4689 L 869,4689"/>
 <path fill="none" stroke="rgb(179,179,179)" stroke-linejoin="round" d="M 719,4689 L 869,4689"/>
 <path fill="none" stroke="rgb(179,179,179)" stroke-linejoin="round" d="M 719,3257 L 869,3257"/>
 <path fill="none" stroke="rgb(179,179,179)" stroke-linejoin="round" d="M 719,3257 L 869,3257"/>
 <path fill="none" stroke="rgb(179,179,179)" stroke-linejoin="round" d="M 719,1826 L 869,1826"/>
 <path fill="none" stroke="rgb(179,179,179)" stroke-linejoin="round" d="M 719,1826 L 869,1826"/>
 <path fill="none" stroke="rgb(179,179,179)" stroke-linejoin="round" d="M 719,395 L 869,395"/>
 <path fill="none" stroke="rgb(179,179,179)" stroke-linejoin="round" d="M 719,395 L 869,395"/>
 <path fill="none" stroke="rgb(179,179,179)" stroke-linejoin="round" d="M 869,8982 L 869,395"/>
 <path fill="none" stroke="rgb(0,69,134)" stroke-width="80" stroke-linejoin="round" d="M 869,1110 L 2206,1826 3543,2541 4881,3257 6218,4689 7556,5403 8893,6119 10230,7550 11567,8266 12904,8266 14241,8982"/>
 <path fill="none" stroke="rgb(255,66,14)" stroke-width="80" stroke-linejoin="round" d="M 869,1110 L 2206,1897 3543,2685 4881,3472 6218,4259 7556,5045 8893,5833 10230,6620 11567,7407 12904,8194 14241,8982"/>
 <text class="TextShape"><tspan class="TextParagraph" font-family="Liberation Sans, sans-serif" font-size="353px" font-weight="400"><tspan class="TextPosition" x="419" y="9550"><tspan fill="rgb(0,0,0)" stroke="none">Day 1</tspan></tspan></tspan></text>
 <text class="TextShape"><tspan class="TextParagraph" font-family="Liberation Sans, sans-serif" font-size="353px" font-weight="400"><tspan class="TextPosition" x="1756" y="9550"><tspan fill="rgb(0,0,0)" stroke="none">Day 2</tspan></tspan></tspan></text>
 <text class="TextShape"><tspan class="TextParagraph" font-family="Liberation Sans, sans-serif" font-size="353px" font-weight="400"><tspan class="TextPosition" x="3093" y="9550"><tspan fill="rgb(0,0,0)" stroke="none">Day 3</tspan></tspan></tspan></text>
 <text class="TextShape"><tspan class="TextParagraph" font-family="Liberation Sans, sans-serif" font-size="353px" font-weight="400"><tspan class="TextPosition" x="4431" y="9550"><tspan fill="rgb(0,0,0)" stroke="none">Day 4</tspan></tspan></tspan></text>
 <text class="TextShape"><tspan class="TextParagraph" font-family="Liberation Sans, sans-serif" font-size="353px" font-weight="400"><tspan class="TextPosition" x="5768" y="9550"><tspan fill="rgb(0,0,0)" stroke="none">Day 5</tspan></tspan></tspan></text>
 <text class="TextShape"><tspan class="TextParagraph" font-family="Liberation Sans, sans-serif" font-size="353px" font-weight="400"><tspan class="TextPosition" x="7105" y="9550"><tspan fill="rgb(0,0,0)" stroke="none">Day 6</tspan></tspan></tspan></text>
 <text class="TextShape"><tspan class="TextParagraph" font-family="Liberation Sans, sans-serif" font-size="353px" font-weight="400"><tspan class="TextPosition" x="8443" y="9550"><tspan fill="rgb(0,0,0)" stroke="none">Day 7</tspan></tspan></tspan></text>
 <text class="TextShape"><tspan class="TextParagraph" font-family="Liberation Sans, sans-serif" font-size="353px" font-weight="400"><tspan class="TextPosition" x="9780" y="9550"><tspan fill="rgb(0,0,0)" stroke="none">Day 8</tspan></tspan></tspan></text>
 <text class="TextShape"><tspan class="TextParagraph" font-family="Liberation Sans, sans-serif" font-size="353px" font-weight="400"><tspan class="TextPosition" x="11118" y="9550"><tspan fill="rgb(0,0,0)" stroke="none">Day 9</tspan></tspan></tspan></text>
 <text class="TextShape"><tspan class="TextParagraph" font-family="Liberation Sans, sans-serif" font-size="353px" font-weight="400"><tspan class="TextPosition" x="12362" y="9550"><tspan fill="rgb(0,0,0)" stroke="none">Day 10</tspan></tspan></tspan></text>
 <text class="TextShape"><tspan class="TextParagraph" font-family="Liberation Sans, sans-serif" font-size="353px" font-weight="400"><tspan class="TextPosition" x="13699" y="9550"><tspan fill="rgb(0,0,0)" stroke="none">Day 11</tspan></tspan></tspan></text>
 <text class="TextShape"><tspan class="TextParagraph" font-family="Liberation Sans, sans-serif" font-size="353px" font-weight="400"><tspan class="TextPosition" x="434" y="9103"><tspan fill="rgb(0,0,0)" stroke="none">0</tspan></tspan></tspan></text>
 <text class="TextShape"><tspan class="TextParagraph" font-family="Liberation Sans, sans-serif" font-size="353px" font-weight="400"><tspan class="TextPosition" x="434" y="7671"><tspan fill="rgb(0,0,0)" stroke="none">2</tspan></tspan></tspan></text>
 <text class="TextShape"><tspan class="TextParagraph" font-family="Liberation Sans, sans-serif" font-size="353px" font-weight="400"><tspan class="TextPosition" x="434" y="6240"><tspan fill="rgb(0,0,0)" stroke="none">4</tspan></tspan></tspan></text>
 <text class="TextShape"><tspan class="TextParagraph" font-family="Liberation Sans, sans-serif" font-size="353px" font-weight="400"><tspan class="TextPosition" x="434" y="4809"><tspan fill="rgb(0,0,0)" stroke="none">6</tspan></tspan></tspan></text>
 <text class="TextShape"><tspan class="TextParagraph" font-family="Liberation Sans, sans-serif" font-size="353px" font-weight="400"><tspan class="TextPosition" x="434" y="3377"><tspan fill="rgb(0,0,0)" stroke="none">8</tspan></tspan></tspan></text>
 <text class="TextShape"><tspan class="TextParagraph" font-family="Liberation Sans, sans-serif" font-size="353px" font-weight="400"><tspan class="TextPosition" x="249" y="1946"><tspan fill="rgb(0,0,0)" stroke="none">10</tspan></tspan></tspan></text>
 <text class="TextShape"><tspan class="TextParagraph" font-family="Liberation Sans, sans-serif" font-size="353px" font-weight="400"><tspan class="TextPosition" x="249" y="515"><tspan fill="rgb(0,0,0)" stroke="none">12</tspan></tspan></tspan></text>
 <path fill="none" stroke="rgb(0,69,134)" stroke-width="80" stroke-linejoin="round" d="M 15493,4664 L 16293,4664"/>
 <path fill="none" stroke="rgb(255,66,14)" stroke-width="80" stroke-linejoin="round" d="M 15493,5161 L 16293,5161"/>
 <text class="TextShape"><tspan class="TextParagraph" font-family="Liberation Sans, sans-serif" font-size="353px" font-weight="400"><tspan class="TextPosition" x="16393" y="4784"><tspan fill="rgb(0,0,0)" stroke="none">Actual Remaining Hours</tspan></tspan></tspan></text>
 <text class="TextShape"><tspan class="TextParagraph" font-family="Liberation Sans, sans-serif" font-size="353px" font-weight="400"><tspan class="TextPosition" x="16393" y="5281"><tspan fill="rgb(0,0,0)" stroke="none">Estimated Remaining Hours</tspan></tspan></tspan></text>
</svg>